# xmcd
# Track frame offsets:
# 200
# 13495
# 22980
# 35957
# 46155
# 56342
# 68277
# 81472
# 99307
# 108285
#
# Disc length: 1578 seconds
# Revision: 0
# Processed by: cddbd v1.4PL0 Copyright (c) Steve Scherf et al.
# Submitted via: VisiTrax 2.9.5.180 - For more info visit www.synapsa.com
#
DISCID=7806280a
DTITLE=B Jeff Stone - Everybody loves me
DYEAR=1900
DGENRE=
TTITLE0=Everybody loves me
TTITLE1=A good woman's love
TTITLE2=He sent her to me
TTITLE3=He's impressive
TTITLE4=Hey little newsboy
TTITLE5=After he touched ou
TTITLE6=I'm what's left
TTITLE7=Better than you are
TTITLE8=Wandering boy
TTITLE9=I envy him tonight
EXTD=
EXTT0=
EXTT1=
EXTT2=
EXTT3=
EXTT4=
EXTT5=
EXTT6=
EXTT7=
EXTT8=
EXTT9=
PLAYORDER=
